<?xml version="1.0" encoding="utf-8"?>
<svg version="1.0" width="1200.000000pt" height="1200.000000pt" viewBox="0 0 2410.002 1200" preserveAspectRatio="xMidYMid meet" xmlns="http://www.w3.org/2000/svg">
  <g transform="translate(0.000000,1200.000000) scale(0.100000,-0.100000)" fill="#000000" stroke="none">
    <path d="M2386 8110 c-37 -27 -83 -52 -102 -56 -19 -3 -37 -10 -40 -15 -12 -21 -188 -79 -237 -79 -13 0 -28 -5 -34 -11 -5 -5 -59 -13 -119 -17 l-109 -8 -62 -47 c-72 -56 -80 -85 -38 -135 13 -16 29 -42 35 -58 11 -27 9 -31 -22 -57 -18 -16 -42 -33 -53 -38 -11 -5 -38 -21 -60 -34 -22 -14 -50 -25 -62 -25 -12 0 -24 -4 -27 -9 -3 -5 -31 -21 -63 -37 -66 -32 -103 -67 -103 -99 0 -22 28 -55 46 -55 5 0 41 -23 79 -51 39 -28 135 -84 215 -124 80 -39 162 -83 182 -97 20 -14 54 -28 75 -31 22 -4 56 -21 78 -40 44 -36 120 -87 132 -87 10 -1 113 -66 254 -162 63 -42 146 -92 185 -112 72 -36 121 -75 79 -63 -34 10 -127 26 -190 33 -99 11 -336 98 -423 156 -24 15 -51 28 -60 28 -9 0 -30 7 -46 15 -15 8 -47 16 -70 17 -37 3 -41 1 -44 -21 -2 -14 -18 -43 -36 -65 -18 -23 -44 -60 -59 -83 -15 -24 -32 -43 -37 -43 -5 0 -32 -22 -60 -50 -28 -27 -55 -50 -60 -50 -5 0 -13 -6 -17 -14 -10 -17 -177 -162 -203 -176 -10 -6 -28 -10 -40 -10 -24 0 -70 -30 -210 -136 -52 -39 -108 -78 -125 -87 -41 -21 -131 -115 -144 -150 -14 -36 -14 -83 0 -108 8 -15 19 -19 52 -17 49 2 107 -10 107 -22 0 -17 -86 -60 -139 -70 -42 -8 -66 -22 -134 -79 -45 -37 -107 -83 -137 -102 -98 -59 -120 -79 -120 -110 0 -36 19 -46 90 -47 92 -2 416 -45 428 -57 11 -11 -83 -75 -110 -75 -5 0 -31 -17 -58 -37 -27 -21 -70 -51 -95 -67 -25 -15 -75 -53 -111 -84 -56 -48 -65 -59 -62 -85 2 -17 10 -33 18 -37 45 -23 235 -60 304 -60 42 0 76 -4 76 -9 0 -12 -76 -74 -115 -94 -16 -8 -50 -34 -74 -56 -24 -23 -46 -41 -48 -41 -3 0 -24 -16 -47 -35 -24 -19 -47 -35 -52 -35 -5 0 -20 -9 -34 -20 -14 -11 -32 -20 -41 -20 -27 0 -79 -63 -79 -96 0 -24 11 -39 57 -78 59 -49 66 -51 133 -30 l25 8 -19 -30 c-11 -16 -25 -33 -33 -37 -7 -4 -13 -13 -13 -19 0 -6 -24 -37 -52 -69 -123 -137 -131 -147 -125 -178 5 -23 -3 -40 -38 -88 -24 -33 -58 -71 -77 -83 -70 -48 -88 -72 -88 -112 0 -27 -4 -38 -15 -38 -19 0 -35 -31 -35 -69 0 -17 -4 -31 -8 -31 -5 0 -25 -24 -45 -53 -31 -45 -37 -62 -37 -105 0 -28 5 -54 10 -57 6 -3 10 -16 10 -29 0 -30 40 -66 72 -66 51 0 86 -12 91 -31 5 -18 17 -19 164 -19 170 0 204 8 189 45 -6 17 2 18 166 10 95 -5 241 -10 323 -11 588 -11 925 -12 1085 -3 230 12 859 11 1040 -1 283 -20 1014 -38 1800 -45 316 -2 597 -7 624 -11 27 -3 72 -20 105 -40 103 -61 265 -79 460 -52 75 10 93 17 150 57 l66 45 410 7 c226 4 649 13 940 19 514 10 1920 27 2918 35 291 2 493 8 500 13 7 6 107 15 222 21 220 12 248 18 305 62 48 36 71 40 172 28 76 -9 90 -8 112 6 21 14 26 25 26 58 0 37 -6 46 -74 111 -40 39 -85 82 -100 95 -19 17 -24 27 -16 35 30 30 -11 105 -122 219 -47 48 -92 87 -100 87 -22 0 -105 102 -113 139 -11 51 -54 131 -71 131 -7 0 -14 4 -14 9 0 5 34 12 75 16 65 6 78 10 96 33 45 58 3 114 -354 473 -33 33 -53 61 -47 64 6 4 69 4 141 1 111 -5 134 -3 156 11 23 15 25 21 21 76 -4 53 -8 63 -39 89 -55 46 -250 198 -254 198 -3 0 -18 8 -34 18 l-29 18 66 0 c157 1 327 17 345 32 31 28 11 122 -26 122 -7 0 -19 11 -27 24 -15 25 -26 34 -137 112 -32 23 -77 60 -99 83 -23 22 -47 41 -53 41 -6 0 -39 21 -72 48 l-62 47 40 3 c49 4 78 32 87 84 7 36 4 40 -84 137 -50 55 -127 126 -171 158 -211 152 -305 230 -449 373 -67 66 -125 120 -130 120 -4 0 -37 38 -72 85 -82 110 -92 111 -202 19 -48 -40 -124 -90 -192 -125 -63 -32 -121 -63 -131 -68 -95 -51 -228 -100 -333 -120 -73 -14 -353 -51 -357 -47 -2 1 27 23 64 47 69 45 135 79 318 163 55 25 105 49 111 54 6 4 60 40 119 80 63 42 134 80 169 92 34 10 104 42 156 69 133 70 190 98 229 112 19 7 55 27 80 44 25 17 105 62 176 99 169 88 235 137 235 174 0 35 -44 78 -123 121 -64 34 -106 63 -107 72 0 11 113 84 160 103 25 10 88 38 140 61 52 24 106 46 120 50 100 31 92 98 -19 148 -52 24 -155 28 -231 10 -66 -16 -347 -16 -480 1 -86 11 -132 22 -182 45 -36 17 -70 31 -76 31 -5 0 -17 9 -27 20 -28 31 -62 26 -145 -21 -31 -18 -67 -32 -134 -51 -70 -19 -251 -94 -316 -131 -29 -16 -93 -54 -200 -117 -8 -5 -64 -37 -125 -73 -168 -98 -168 -99 -250 -154 -42 -29 -78 -53 -81 -53 -2 0 -61 -43 -131 -95 -71 -52 -155 -113 -187 -137 -33 -24 -96 -78 -140 -120 -77 -74 -111 -101 -236 -185 -30 -21 -77 -57 -105 -80 -27 -24 -55 -43 -61 -43 -7 0 -18 -10 -27 -23 -8 -13 -66 -62 -128 -109 -111 -85 -164 -129 -259 -215 -26 -24 -54 -43 -62 -43 -8 0 -52 -51 -97 -112 -45 -62 -112 -152 -149 -200 -37 -47 -96 -126 -132 -174 -58 -78 -78 -103 -135 -165 -8 -9 -15 -20 -15 -24 0 -5 -17 -29 -38 -54 -21 -25 -60 -82 -87 -126 -27 -44 -65 -99 -85 -121 -19 -23 -50 -72 -69 -110 -19 -38 -42 -78 -52 -89 -9 -11 -44 -72 -77 -135 -33 -63 -72 -137 -86 -164 -14 -27 -26 -53 -26 -58 0 -5 -11 -24 -25 -42 -14 -18 -25 -37 -25 -42 0 -5 -11 -26 -25 -46 -14 -20 -25 -44 -25 -53 0 -9 -18 -43 -40 -75 -28 -41 -40 -70 -40 -94 0 -19 -4 -37 -9 -41 -5 -3 -12 -19 -16 -36 -4 -17 -13 -42 -21 -57 -8 -15 -14 -34 -14 -43 0 -9 -9 -36 -19 -60 l-19 -42 -13 44 c-7 24 -16 49 -20 54 -10 13 -105 233 -114 265 -4 14 -30 64 -56 113 -27 48 -49 89 -49 92 0 6 -64 142 -96 206 -13 26 -24 57 -24 70 -1 13 -14 42 -30 64 -52 71 -197 317 -244 415 -25 52 -68 124 -96 160 -27 36 -67 89 -87 117 -76 105 -158 209 -203 258 -57 62 -130 168 -130 190 0 9 -10 26 -23 38 -30 28 -197 282 -197 299 0 7 -25 40 -56 73 -31 33 -65 71 -75 84 -11 14 -52 60 -92 104 -40 44 -77 89 -84 101 -7 13 -28 33 -47 47 -19 13 -54 47 -77 76 -23 29 -48 53 -55 53 -8 0 -14 4 -14 9 0 6 -12 16 -27 23 -15 7 -33 23 -39 36 -16 32 -126 137 -215 204 -64 48 -181 118 -378 225 -24 13 -63 35 -86 47 -23 13 -50 28 -61 34 -27 15 -169 77 -229 99 -27 11 -95 48 -150 82 -199 126 -421 251 -445 251 -8 0 -46 -22 -84 -50z m213 -50 c44 -27 115 -69 158 -93 126 -71 278 -167 265 -167 -21 0 -2 -21 32 -36 17 -7 26 -13 19 -14 -23 0 -109 42 -237 119 -72 43 -167 100 -211 125 -111 65 -127 78 -119 99 3 9 8 17 9 17 2 0 40 -22 84 -50z m7357 -90 c41 -18 50 -27 47 -41 -7 -25 -13 -24 -83 11 -61 31 -65 36 -54 65 6 14 8 14 23 1 9 -8 39 -24 67 -36z m974 -105 c11 -13 8 -15 -22 -15 -19 0 -43 7 -54 15 -18 13 -16 14 22 15 25 0 47 -6 54 -15z m-7723 -138 c4 -7 9 -20 10 -29 2 -14 -1 -16 -20 -9 -13 5 -39 19 -58 31 -33 21 -33 22 -6 17 22 -3 25 -2 16 9 -9 11 -6 12 20 3 17 -6 34 -16 38 -22z m73 -25 c0 -5 34 -26 75 -47 51 -27 71 -42 62 -48 -8 -6 -6 -7 6 -3 23 8 275 -128 367 -198 63 -48 144 -126 225 -219 22 -25 46 -46 53 -46 6 -1 12 -5 12 -9 0 -5 11 -15 25 -22 14 -7 25 -17 25 -21 0 -10 92 -99 102 -99 4 0 8 -7 8 -15 0 -8 7 -15 15 -15 8 0 15 -4 15 -9 0 -5 18 -28 40 -52 22 -24 68 -78 103 -120 34 -43 70 -79 80 -82 10 -3 17 -15 17 -31 0 -17 5 -26 16 -26 18 0 43 -27 44 -47 0 -18 162 -263 194 -293 14 -14 26 -34 26 -44 0 -21 80 -138 120 -176 35 -33 174 -211 215 -275 18 -27 43 -61 56 -75 13 -14 33 -43 44 -63 11 -20 24 -37 30 -37 5 0 26 -35 45 -77 19 -42 76 -147 127 -234 51 -87 93 -165 93 -174 0 -15 48 -115 60 -125 14 -11 100 -192 100 -209 0 -6 5 -11 11 -11 5 0 8 -4 5 -9 -3 -5 3 -19 13 -32 22 -29 111 -200 111 -214 0 -6 23 -63 51 -125 28 -63 55 -128 61 -145 5 -16 16 -44 24 -62 8 -17 14 -36 14 -42 0 -6 7 -11 15 -11 9 0 15 -9 15 -25 0 -14 -4 -25 -9 -25 -37 0 -82 89 -212 415 -15 39 -49 108 -75 155 -26 47 -71 135 -100 195 -30 61 -65 130 -79 155 -13 25 -32 65 -42 90 -9 25 -50 101 -91 170 -41 69 -94 164 -118 213 -24 48 -74 126 -109 175 -36 48 -102 137 -147 197 -45 61 -102 133 -127 160 -61 66 -118 144 -136 189 -8 19 -25 46 -36 58 -25 27 -160 231 -185 280 -9 18 -26 43 -38 54 -22 23 -58 65 -177 204 -65 77 -146 158 -316 321 -32 30 -77 78 -100 106 -68 81 -202 174 -442 304 -123 68 -219 125 -212 127 9 3 9 7 0 18 -9 11 -7 14 10 14 11 0 21 -4 21 -8z m7150 -147 c7 -8 20 -15 30 -15 20 0 53 -34 43 -44 -4 -4 0 -4 9 -1 9 4 19 1 24 -6 5 -8 3 -10 -6 -4 -9 5 -11 4 -6 -4 4 -6 16 -9 27 -6 13 4 19 2 17 -6 -2 -6 20 -25 47 -41 48 -27 49 -27 22 -3 -15 14 -25 25 -21 25 11 0 74 -62 74 -72 0 -16 -61 -8 -90 12 -17 11 -42 28 -57 38 -128 85 -153 105 -153 123 0 23 23 25 40 4z m-6669 -356 c23 -22 58 -53 78 -67 151 -110 431 -370 431 -400 0 -7 -4 -10 -10 -7 -5 3 -10 13 -10 21 0 8 -7 14 -15 14 -8 0 -22 11 -31 25 -9 14 -20 25 -25 25 -5 0 -30 20 -55 45 -26 24 -51 42 -55 39 -5 -3 -9 0 -9 6 0 6 -8 14 -17 17 -9 4 -29 21 -45 39 -26 30 -83 64 -106 64 -6 0 -18 -14 -26 -32 -19 -38 -19 -39 -2 -32 8 3 16 -3 19 -16 3 -11 19 -25 36 -31 17 -6 31 -16 31 -22 0 -6 18 -32 40 -58 43 -51 49 -69 25 -69 -8 0 -15 3 -15 8 0 8 -49 32 -67 32 -17 0 -17 17 0 23 7 3 5 6 -5 6 -19 1 -161 46 -193 61 -19 10 -55 18 -83 19 -7 1 -10 6 -7 11 5 9 -8 12 -31 9 -4 0 -10 3 -13 8 -8 12 -76 43 -94 43 -9 0 -17 3 -19 8 -1 4 -23 17 -47 28 l-43 22 53 39 c30 22 83 57 119 78 36 21 81 49 100 62 19 12 38 23 42 23 4 0 26 -18 49 -41z m4782 -82 c45 -30 95 -62 111 -73 15 -10 43 -28 60 -39 60 -37 137 -97 132 -103 -3 -2 -12 1 -21 8 -13 11 -14 10 -9 -4 3 -9 1 -16 -5 -16 -18 0 -24 -3 -55 -32 -16 -15 -43 -32 -60 -39 -70 -26 -116 -50 -116 -59 0 -6 -3 -9 -7 -8 -13 4 -73 -24 -73 -34 0 -5 -4 -6 -10 -3 -5 3 -10 1 -10 -6 0 -8 -4 -8 -13 -1 -17 14 -42 -1 -32 -19 5 -8 5 -11 0 -7 -4 4 -13 4 -19 -1 -6 -5 -56 -32 -111 -61 -55 -29 -116 -64 -135 -79 -19 -14 -68 -48 -109 -75 -41 -27 -88 -62 -104 -77 -16 -16 -33 -29 -36 -29 -6 0 -25 -19 -145 -143 -31 -32 -60 -56 -65 -53 -5 3 -15 -2 -22 -11 -11 -13 -11 -17 -1 -20 6 -3 12 -9 12 -14 0 -6 -4 -8 -9 -4 -5 3 -12 -4 -16 -15 -7 -22 -53 -62 -64 -55 -4 2 -15 -18 -25 -44 -14 -39 -23 -50 -45 -54 -20 -4 -30 -13 -33 -31 -4 -18 -1 -26 8 -26 8 0 14 -2 14 -4 0 -2 3 -12 6 -20 11 -29 -25 -6 -121 73 -49 42 -118 96 -152 121 -34 25 -63 51 -63 58 0 14 17 16 22 3 4 -12 79 -18 96 -7 7 4 9 22 5 51 -5 43 6 61 22 35 12 -19 23 -10 29 25 4 19 10 35 13 35 8 0 107 -83 165 -139 26 -24 51 -41 55 -37 4 4 9 98 10 208 0 110 3 200 5 202 1 1 23 18 48 37 25 20 104 78 175 130 72 51 155 119 185 150 30 31 73 69 95 85 42 30 183 147 272 227 29 26 56 47 59 47 3 0 43 -24 87 -53z m1804 -454 c21 -15 74 -64 118 -109 102 -102 274 -262 278 -257 2 2 16 -8 30 -21 14 -13 28 -21 31 -18 3 3 6 0 6 -6 0 -7 5 -12 11 -12 20 0 181 -123 213 -163 17 -21 43 -53 59 -70 15 -17 27 -35 27 -39 0 -5 6 -8 14 -8 24 0 27 -29 4 -41 -23 -12 -40 3 -119 108 -41 55 -93 97 -231 186 -75 50 -259 214 -489 438 -104 101 -122 128 -113 163 6 25 9 23 65 -48 32 -41 75 -87 96 -103z m-8332 38 c25 -14 31 -19 15 -15 -43 11 38 -45 85 -58 41 -12 88 -38 69 -38 -16 0 -209 85 -240 105 -20 13 -23 19 -13 36 9 18 12 19 27 6 9 -8 35 -24 57 -36z m-125 29 c0 -5 -4 -10 -9 -10 -6 0 -13 5 -16 10 -3 6 1 10 9 10 9 0 16 -4 16 -10z m1264 -33 c22 -27 27 -40 19 -48 -8 -8 -21 -2 -49 25 -20 20 -42 36 -47 36 -6 0 -2 7 9 15 25 19 32 16 68 -28z m-197 -1 c-1 -6 8 -11 20 -10 12 0 19 -4 16 -9 -4 -6 1 -8 11 -4 9 4 15 3 12 -1 -6 -10 30 -43 38 -35 3 4 6 -1 6 -9 0 -9 7 -21 15 -28 32 -27 12 -29 -52 -4 -38 13 -97 35 -131 47 l-64 22 28 22 c16 12 30 20 32 18 3 -2 11 2 19 10 11 12 18 12 33 3 10 -7 18 -17 17 -22z m6271 -35 c-2 -8 -23 -23 -48 -32 -72 -26 -157 -68 -226 -110 -71 -43 -104 -50 -104 -21 0 12 15 26 38 38 20 10 56 31 79 47 23 15 45 27 50 27 5 0 24 11 43 24 20 13 44 25 53 27 10 2 17 7 15 11 -2 4 6 14 17 21 17 13 23 13 52 -1 20 -9 32 -22 31 -31z m-6028 -42 c0 -11 -4 -17 -10 -14 -5 3 -10 13 -10 21 0 8 5 14 10 14 6 0 10 -9 10 -21z m-675 -109 c3 -6 -1 -7 -9 -4 -18 7 -21 14 -7 14 6 0 13 -4 16 -10z m1855 -67 c0 -5 -5 -15 -10 -23 -8 -12 -10 -11 -10 8 0 12 5 22 10 22 6 0 10 -3 10 -7z m4530 -63 c12 -23 6 -40 -14 -40 -20 0 -39 27 -32 45 8 21 33 19 46 -5z m-6400 -39 c109 -19 205 -42 235 -57 16 -8 52 -19 79 -25 27 -5 63 -16 79 -24 17 -8 35 -15 42 -15 6 0 29 -16 51 -35 21 -19 45 -35 52 -35 6 0 12 -4 12 -9 0 -10 42 -39 62 -43 7 -2 15 -6 18 -10 3 -3 12 -8 20 -10 7 -2 25 -15 37 -30 13 -15 49 -39 79 -54 69 -34 101 -84 53 -84 -30 0 -20 -32 14 -41 15 -4 25 -3 22 2 -4 5 -1 17 4 26 6 11 11 13 12 6 1 -7 2 -17 3 -22 0 -5 39 -35 86 -66 47 -31 88 -63 92 -70 5 -7 27 -23 50 -34 24 -11 63 -38 88 -59 42 -37 43 -40 27 -57 -11 -10 -24 -14 -35 -10 -9 4 -71 9 -137 12 -167 7 -166 7 -230 41 -40 21 -309 187 -360 222 -22 16 -101 67 -175 116 -74 48 -214 140 -312 203 -97 64 -184 121 -194 127 -17 10 -15 13 21 32 42 23 82 23 205 3z m7210 -46 c0 -2 -10 -9 -22 -15 -22 -11 -22 -10 -4 4 21 17 26 19 26 11z m-50 -30 c0 -2 -60 -44 -132 -93 -73 -48 -155 -104 -183 -123 -196 -137 -502 -323 -530 -321 -10 0 -24 -3 -30 -8 -6 -5 -28 -11 -50 -14 -22 -3 -67 -12 -100 -21 -33 -9 -82 -16 -108 -15 -32 1 -47 -3 -42 -9 8 -14 -8 -14 -20 -2 -11 11 -83 -4 -215 -43 -94 -28 -104 -30 -96 -17 3 4 -7 6 -22 4 -26 -5 -25 -4 11 23 20 15 37 31 37 36 0 10 51 57 63 58 8 0 63 37 85 58 13 12 28 16 45 13 5 -1 6 3 3 8 -6 10 17 23 48 26 10 1 23 9 28 18 5 10 17 17 28 17 10 0 26 7 34 16 9 8 28 17 42 20 15 3 39 11 55 19 15 8 35 15 44 15 9 0 31 11 48 24 45 33 136 80 143 74 3 -3 32 3 65 13 34 11 72 19 85 19 13 0 24 4 24 9 0 5 17 7 38 4 75 -10 141 4 127 28 -10 14 31 27 193 61 28 6 52 15 52 19 0 4 14 10 31 14 17 4 47 18 66 31 21 14 50 24 72 24 27 0 32 3 21 10 -12 8 -9 10 13 10 15 0 27 -2 27 -5z m-7460 -100 c114 -25 209 -62 290 -113 19 -12 47 -22 63 -22 15 0 27 -5 27 -11 0 -5 14 -15 30 -20 17 -6 30 -15 30 -21 0 -5 4 -7 9 -4 5 4 22 1 37 -5 23 -8 25 -12 14 -19 -12 -8 -10 -10 8 -10 12 0 22 -4 22 -10 0 -5 6 -10 14 -10 16 0 46 -26 46 -41 0 -12 -45 -12 -84 0 -79 24 -143 31 -296 36 -98 2 -194 10 -235 20 -38 8 -86 18 -105 21 -19 3 -46 12 -60 19 -14 7 -38 15 -53 19 -15 4 -48 28 -72 53 l-45 47 22 25 c30 34 45 44 88 57 42 13 162 8 250 -11z m5040 -5 c0 -21 -15 -27 -25 -10 -7 12 2 30 16 30 5 0 9 -9 9 -20z m50 -30 c0 -5 -4 -10 -9 -10 -6 0 -13 5 -16 10 -3 6 1 10 9 10 9 0 16 -4 16 -10z m-2400 -224 c0 -7 -13 -13 -30 -13 -22 0 -30 5 -30 18 0 10 -6 21 -12 25 -9 6 -5 10 12 15 26 7 60 -19 60 -45z m6120 -89 c0 -7 8 -17 19 -24 10 -6 44 -32 75 -57 30 -25 62 -46 70 -46 7 0 20 -8 27 -17 10 -11 10 -14 2 -9 -7 4 -13 5 -13 2 0 -3 15 -13 33 -22 17 -9 34 -20 37 -23 3 -4 29 -22 58 -40 28 -18 52 -37 52 -41 0 -4 32 -34 70 -66 39 -32 70 -62 70 -66 0 -4 -11 -8 -25 -8 -16 0 -53 25 -108 73 -78 67 -196 157 -238 183 -10 6 -52 38 -94 72 -63 53 -75 67 -75 92 0 28 2 30 20 20 11 -6 20 -16 20 -23z m-3851 -37 c14 0 15 -17 1 -25 -5 -3 -10 -14 -10 -23 0 -12 -9 -17 -31 -18 -21 -1 -29 3 -25 12 3 7 -2 20 -10 29 -14 13 -13 16 10 25 14 5 26 15 26 22 1 8 6 7 14 -4 7 -10 18 -18 25 -18z m188 -35 c0 -8 -4 -15 -9 -15 -4 0 -8 7 -8 15 0 8 4 15 8 15 5 0 9 -7 9 -15z m-143 -121 c7 -19 -1 -34 -19 -34 -18 0 -26 25 -12 39 15 15 24 14 31 -5z m884 -56 c-37 -32 -55 -22 -23 12 20 21 31 26 36 18 4 -7 -1 -20 -13 -30z m-4305 5 c-7 -2 -21 -2 -30 0 -10 3 -4 5 12 5 17 0 24 -2 18 -5z m3311 -69 c22 -9 20 -34 -3 -34 -19 0 -35 23 -24 34 8 7 8 7 27 0z m-274 -65 c0 -4 -9 -13 -19 -18 -15 -8 -20 -7 -25 6 -4 9 -1 20 5 24 14 8 39 1 39 -12z m160 -34 c0 -8 -7 -15 -15 -15 -8 0 -15 7 -15 15 0 8 7 15 15 15 8 0 15 -7 15 -15z m4042 -63 c18 -26 39 -37 32 -18 -3 9 -1 16 4 16 6 0 12 -10 14 -22 2 -13 15 -29 30 -36 16 -7 33 -22 38 -33 6 -10 15 -19 21 -19 6 0 7 5 4 10 -11 18 1 11 21 -12 19 -22 19 -23 -1 -8 -20 15 -20 15 -1 -8 11 -12 26 -20 33 -18 7 3 17 -4 23 -14 6 -11 14 -19 18 -17 7 2 104 -62 147 -98 14 -11 27 -34 31 -51 6 -30 4 -31 -20 -27 -14 3 -26 11 -26 17 0 18 -33 46 -130 109 -47 31 -105 73 -130 92 -25 20 -66 53 -92 72 -34 25 -48 43 -48 59 0 29 14 31 32 6z m-4199 -48 c9 -10 -4 -34 -19 -34 -8 0 -14 6 -14 13 0 22 19 35 33 21z m4397 -523 c0 -3 57 -62 128 -131 113 -111 193 -212 179 -227 -12 -11 -49 11 -71 43 -12 19 -103 116 -200 216 -172 176 -203 215 -191 246 3 9 28 -10 80 -64 41 -43 75 -80 75 -83z m-5638 -8 c24 -28 80 -141 76 -154 -4 -11 -101 122 -114 155 -8 22 19 21 38 -1z m5745 -395 c4 -7 15 -33 23 -58 11 -32 20 -45 33 -44 10 1 17 -5 17 -16 0 -10 6 -23 14 -29 8 -7 18 -30 21 -53 4 -24 19 -53 36 -71 17 -17 40 -43 52 -59 12 -15 29 -28 37 -28 27 0 160 -137 192 -196 l18 -34 -24 0 c-15 0 -30 10 -41 28 -27 41 -162 172 -178 172 -25 0 -123 124 -135 172 -6 24 -27 61 -46 82 -49 55 -71 146 -36 146 5 0 12 -6 17 -12z m-5562 -134 c8 -9 23 -30 31 -47 9 -18 22 -39 29 -47 17 -20 95 -168 95 -180 0 -5 -8 -7 -17 -3 -45 16 -77 50 -105 112 -34 75 -68 162 -68 174 0 12 18 8 35 -9z m5972 -514 c3 -11 10 -20 17 -20 6 0 52 -37 101 -81 61 -56 89 -88 88 -101 -2 -11 1 -16 7 -13 6 3 10 1 10 -5 0 -23 -46 3 -105 59 -33 32 -81 74 -107 95 -34 26 -48 45 -48 62 0 30 29 33 37 4z"/>
    <path d="M3780 7091 c13 -25 69 -65 78 -57 6 7 -67 75 -81 76 -4 0 -3 -9 3 -19z"/>
    <path d="M7407 6082 c-36 -37 -34 -54 8 -91 45 -39 66 -39 99 0 33 39 33 62 -1 94 -36 33 -72 32 -106 -3z m101 -35 c2 -19 -2 -29 -15 -33 -10 -3 -28 -11 -41 -17 -36 -17 -54 21 -31 64 8 16 19 19 47 17 32 -3 37 -7 40 -31z"/>
    <path d="M3010 6040 c0 -5 5 -10 10 -10 6 0 10 5 10 10 0 6 -4 10 -10 10 -5 0 -10 -4 -10 -10z"/>
    <path d="M2566 5993 c-11 -11 -6 -23 9 -23 8 0 15 4 15 9 0 13 -16 22 -24 14z"/>
  </g>
  <text style="font-family: &quot;Mongolian Baiti&quot;; font-size: 93.7px; white-space: pre;" transform="matrix(4.584282, 0, 0, 3.650676, -4440.724121, -1922.00647)" x="1236.14" y="739.945">Estuda</text>
</svg>